<?xml version="1.0" encoding="UTF-8" standalone="no"?>
<svg
   xmlns:dc="http://purl.org/dc/elements/1.1/"
   xmlns:cc="http://creativecommons.org/ns#"
   xmlns:rdf="http://www.w3.org/1999/02/22-rdf-syntax-ns#"
   xmlns:svg="http://www.w3.org/2000/svg"
   xmlns="http://www.w3.org/2000/svg"
   xmlns:sodipodi="http://sodipodi.sourceforge.net/DTD/sodipodi-0.dtd"
   xmlns:inkscape="http://www.inkscape.org/namespaces/inkscape"
   version="1.1"
   id="Layer_2"
   x="0px"
   y="0px"
   width="1392.8242"
   height="246.78079"
   viewBox="0 0 1392.8243 246.78077"
   enable-background="new 0 0 600 600"
   xml:space="preserve"
   inkscape:version="0.91 r13725"
   sodipodi:docname="react-native-logo.svg"><metadata
     id="metadata4500"><rdf:RDF><cc:Work
         rdf:about=""><dc:format>image/svg+xml</dc:format><dc:type
           rdf:resource="http://purl.org/dc/dcmitype/StillImage" /><dc:title></dc:title></cc:Work></rdf:RDF></metadata><defs
     id="defs4498" /><sodipodi:namedview
     pagecolor="#ffffff"
     bordercolor="#666666"
     borderopacity="1"
     objecttolerance="10"
     gridtolerance="10"
     guidetolerance="10"
     inkscape:pageopacity="0"
     inkscape:pageshadow="2"
     inkscape:window-width="1446"
     inkscape:window-height="821"
     id="namedview4496"
     showgrid="false"
     inkscape:zoom="0.24387097"
     inkscape:cx="695.43767"
     inkscape:cy="201.80937"
     inkscape:window-x="0"
     inkscape:window-y="0"
     inkscape:window-maximized="0"
     inkscape:current-layer="Layer_2"
     inkscape:snap-page="false"
     fit-margin-top="-10"
     fit-margin-left="0"
     fit-margin-right="0"
     fit-margin-bottom="-10" /><rect
     width="266.78079"
     height="266.78079"
     id="rect4486"
     style="fill:#222222;fill-opacity:0"
     x="0"
     y="-10.000015" /><circle
     cx="143.83101"
     cy="123.22496"
     id="circle4488"
     style="fill:#05a5cd;fill-opacity:1"
     r="22.305986" /><path
     stroke-miterlimit="10"
     d="m 143.83101,77.872205 c 29.94876,0 57.77058,4.297405 78.74786,11.51915 25.27485,8.701075 40.81481,21.890705 40.81481,33.833585 0,12.44577 -16.46971,26.45709 -43.61104,35.44982 -20.52044,6.79892 -47.52221,10.34753 -75.95163,10.34753 -29.14755,0 -56.748653,-3.33118 -77.495326,-10.42269 -26.253948,-8.97359 -42.067358,-23.16678 -42.067358,-35.37466 0,-11.84595 14.837415,-24.93333 39.757021,-33.621489 21.05566,-7.340476 49.564283,-11.731246 79.805663,-11.731246 z"
     id="path4490"
     style="fill:none;stroke:#05a5d1;stroke-width:10.67123032;stroke-miterlimit:10;stroke-opacity:1"
     inkscape:connector-curvature="0" /><path
     stroke-miterlimit="10"
     d="m 104.35052,100.67928 c 14.96158,-25.943526 32.58337,-47.897871 49.31891,-62.462306 20.16422,-17.547964 39.35324,-24.42057 49.69899,-18.454515 10.78166,6.217286 14.69168,27.484582 8.92263,55.488623 -4.36198,21.172618 -14.7772,46.336248 -28.97972,70.964128 -14.56121,25.24992 -31.23557,47.49543 -47.74342,61.92516 -20.88932,18.26026 -41.084206,24.86796 -51.659927,18.76936 -10.261674,-5.9181 -14.186462,-25.30905 -9.263441,-51.23658 4.159623,-21.90717 14.598197,-48.79642 29.705978,-74.99387 z"
     id="path4492"
     style="fill:none;stroke:#05a5cd;stroke-width:10.67123032;stroke-miterlimit:10;stroke-opacity:1"
     inkscape:connector-curvature="0" /><path
     stroke-miterlimit="10"
     d="M 104.38834,146.28101 C 89.383767,120.36238 79.163796,94.13117 74.903726,72.35829 69.770852,46.125296 73.399949,26.06787 83.735966,20.084446 c 10.770773,-6.235627 31.148884,0.997747 52.529134,19.981799 16.1651,14.352826 32.76432,35.942937 47.00808,60.547255 14.60357,25.22545 25.54913,50.78124 29.8066,72.28956 5.38751,27.21743 1.02664,48.01344 -9.53885,54.12983 -10.25194,5.93497 -29.01187,-0.34858 -49.01608,-17.56262 -16.90188,-14.54443 -34.98475,-37.01717 -50.13651,-63.18926 z"
     id="path4494"
     style="fill:none;stroke:#05a5d1;stroke-width:10.67123032;stroke-miterlimit:10;stroke-opacity:1"
     inkscape:connector-curvature="0" /><text
     xml:space="preserve"
     style="font-style:normal;font-variant:normal;font-weight:normal;font-stretch:normal;font-size:188.67041016px;line-height:125%;font-family:sans-serif;-inkscape-font-specification:'sans-serif, Normal';text-align:start;letter-spacing:0px;word-spacing:0px;writing-mode:lr-tb;text-anchor:start;fill:#000000;fill-opacity:1;stroke:none;stroke-width:1px;stroke-linecap:butt;stroke-linejoin:miter;stroke-opacity:1"
     x="317.21265"
     y="186.71268"
     id="text5042"
     sodipodi:linespacing="125%"><tspan
       sodipodi:role="line"
       x="317.21265"
       y="186.71268"
       id="tspan5046"
       style="font-style:normal;font-variant:normal;font-weight:normal;font-stretch:normal;font-size:188.67706299px;line-height:125%;font-family:'Helvetica Neue';-inkscape-font-specification:'Helvetica Neue, Normal';text-align:start;writing-mode:lr-tb;text-anchor:start;fill:#05a5d1;fill-opacity:1">React Native</tspan></text>
</svg>